/* XPM */
static char *result[] = {
/* columns rows colors chars-per-pixel */
"100 100 3 1 ",
"  c black",
". c #E29C9C",
"X c white",
/* pixels */
"....................................................................................................",
"....................................................................................................",
"....................................................................................................",
"....................................................................................................",
"....................................................................................................",
"....................................................................................................",
"....................................................................................................",
"....................................................................................................",
"....................................................................................................",
"....................................................................................................",
"....................................................................................................",
"....................................................................................................",
"....................................................................................................",
"....................................................................................................",
"....................................................................................................",
"............................................XXXXXXXXXX..............................................",
".........................................XXXXXXXXXXXXXXXX...........................................",
".......................................XXXX           XXXXX.........................................",
"......................................XXX                 XX........................................",
".....................................XXX                   XX.......................................",
"....................................XX                      XX......................................",
"...................................XX                       XXX.....................................",
"..................................XXX                        XXX....................................",
".................................XXX                           XX...................................",
"................................XX                             XXX..................................",
"...............................XXX                              XX..................................",
"...............................XXX                               XX.................................",
"...............................XX                                XX.................................",
"..............................XX                                 XX.................................",
"..............................XX                                  XX................................",
"..............................XX                                  XX................................",
"..............................XX                                  XX................................",
"..............................XX                                  XX................................",
"..............................XX                                  XX................................",
"..............................XX                                  XX................................",
"..............................XX                                  XX................................",
"..............................XX                                  XX................................",
"..............................XX                                  XX................................",
"..............................XX                                  XX................................",
"..............................XX                                  X.................................",
"..............................XXX                                XX.................................",
"...............................XX                                XX.................................",
"................................XX                              XX..................................",
"................................XX                            XXXX..................................",
".................................XX                           XXX...................................",
".................................XXX                          XX....................................",
"..................................XXX                        XXX....................................",
"...................................XX                       XXX.....................................",
"...................................XXX                     XXX......................................",
"...................................XXX                     XX.......................................",
"...................................XXX                   XXX........................................",
"...................................XXX                  XXX.........................................",
"...................................XXX                  XXX.........................................",
"...................................XXX                  XXX.........................................",
"...................................XXX                  XXX.........................................",
"..................................XXX                  XXX..........................................",
"................................XXX                    XXX..........................................",
"..............................XXXX                     XX...........................................",
".............................XXX                       XXX..........................................",
".........................XXXXX                         XXX..........................................",
"......................XXXXXXXX                          XXXXX.......................................",
"..................XXXXXXXX                               XXXXXXXXX..................................",
"..................XX                                        XXXXXXXXXXX.............................",
"..................XX                                             XXXXXXXXXX.........................",
".................XXX                                                XXXXXXXXXXXXXXXXXXX.............",
".................XX                                                      XXXXXXXXXXXXXXXX...........",
"................XXX                                                                  XXXXXX.........",
"................XXX                                                                      XXX........",
"................XX                                                                       XXX........",
"................XX                                                                       XXX........",
"................XX                                                                       XXXX.......",
"................XX                                                                        XXX.......",
"................XX                                                                        XXX.......",
"................XXX                                                                       XXX.......",
"................XXX                                                                       XXX.......",
"................XXX                                                                       XX........",
"................XXX                                                                       X.........",
"................XXX                                                                      XX.........",
"................XXXXXXXX                                                                XXX.........",
".................XXXXXXX                                                                XX..........",
"......................XXXX                                                            XXXX..........",
"......................XXXXXXXXXXXX                                                    XXX...........",
"........................XXXXXXXXXXXXX                             XXXXXXXXXXXXXXXXXXXXXXX...........",
"...............................XXXXXXXXXXXXXXXXXXXXXXXXXXXXXXXXXXXXXXXXXXXXXXXXXXXXXXXX.............",
"................................XXXXXXXXXXXXXXXXXXXXXXXXXXXXXXXXXXX.................................",
"....................................................................................................",
"....................................................................................................",
"....................................................................................................",
"....................................................................................................",
"....................................................................................................",
"....................................................................................................",
"....................................................................................................",
"....................................................................................................",
"....................................................................................................",
"....................................................................................................",
"....................................................................................................",
"....................................................................................................",
"....................................................................................................",
"....................................................................................................",
"...................................................................................................."
};
