/* XPM */
static char *result[] = {
/* columns rows colors chars-per-pixel */
"100 100 3 1 ",
"  c black",
". c #E29C9C",
"X c white",
/* pixels */
"...................................................XXX..............................................",
"..................................................XXXX..............................................",
".................................................XXXXX..............................................",
".................................................XX XXX.............................................",
"................................................XXX  XX.............................................",
"...............................................XXX   XX.............................................",
"...............................................XX    XX.............................................",
"..............................................XXX    XX.............................................",
"..............................................XX     XX.............................................",
".............................................XXX     XX.............................................",
"............................................XXX      XX.............................................",
"............................................XX       XX.............................................",
"...........................................XXX       XX.............................................",
"...........................................XX       XXX.............................................",
".....................................XXXXXXXX XXXXX XX..............................................",
"....................................XXXXXXXX  XXXXXXXX..............................................",
"...................................XXXX  XX      XXXXX..............................................",
".................................XXXX             XXX XX............................................",
"................................XXXX                  XXXXX.........................................",
"................................XXX                    XXXXXXXXX....................................",
"...............................XXX                       XXXXXXXX...................................",
"..............................XXX                             XXX...................................",
"..............................XXX                              XXX..................................",
".............................XXX                                XX..................................",
"............................XXX                                 XXX.................................",
"............................XX                                  XXX.................................",
"...........................XXX                                   XX.................................",
"..........................XXXX                                   XX.................................",
".........................XXX                                     XX.................................",
".........................XXX                                     XXX................................",
".......................XXXX                                       XX................................",
"......................XXXX                                        XXX...............................",
".....................XXX                                           XX...............................",
"....................XXX                                            XX...............................",
"...................XXX                                             XX...............................",
".................XXXX                                              XX...............................",
"................XXXX                                               XX...............................",
"...............XXXX                                                XX...............................",
"...............XXX                                                 XX...............................",
"...............XX                                                  XX...............................",
"...............XX                      XX                          XX...............................",
"...............XX                      XX                          XX...............................",
"...............XX                      XX                          XX...............................",
"...............XXX          XXXXXXXXXXXXX                          XX...............................",
"...............XXXX      XXXXXXXXXXXXXXX                           XX...............................",
"................XXXXXXXXXXXXX.........XX                          XXX...............................",
"..................XXXXXXXX............XX                          XX................................",
"......................................XX                          XX................................",
"......................................XX                         XXX................................",
"......................................XX                         XX.................................",
"......................................XX                         XX.................................",
"......................................XX                         XX.................................",
"......................................XX                        XXX.................................",
"......................................XX                       XXXX.................................",
"......................................XX                       XXX..................................",
"......................................XX                      XXX...................................",
".....................................XXX                      XX....................................",
".....................................XX                     XXXX....................................",
".....................................XX                    XXXX.....................................",
".....................................XX                   XXX.......................................",
"........XXX..........................XX                 XXXX........................................",
".......XXXXX.......................XXXX                XXXX.........................................",
"......XXXXXXXX.....................XXX                XXXX..........................................",
"......XXX  XXXX...................XXX              XXXXXX...........................................",
"......XX    XXXX................XXXX              XXXXXX............................................",
"......XXX    XXXXX.............XXXX              XXXXX..............................................",
"......XXXX     XXXX...........XXXX             XXXXXXX..............................................",
".......XXXX      XXXX........XXXX              XXXX.................................................",
"........XXXXXX    XXXXX.....XXXX                 XX.................................................",
".........XXXXXX    XXXXXXX.XXX                  XXX.................................................",
"............XXXXX     XXXXXXX                   XX..................................................",
"..............XXXX        XXX                   XXX.................................................",
"................XXX       XX                    XXXX................................................",
"................XXXX                             XXXX...............................................",
".................XXX                               XXX..............................................",
"..................XXX                               XX..............................................",
"..................XXX                               XXX......XXXXXXXXXX.............................",
"...................XX                                XXXX..XXXXXXXXXXXXXX...........................",
"...................XX                                XXXXXXXXX        XXXX..........................",
"..................XXX                                   XXXX            XXX.........................",
".................XXX   XXX                                               XXX........................",
".................XX    XXX                                                XX........................",
".................XX   XXXXX                                               XX........................",
".................XXXXXXXXXX                                               XX........................",
"..................XXXXXX.XX                                               XX........................",
".........................XX                                               XX........................",
".........................XX                                               XX........................",
"........................XXX              XXXXXXXXXXXXXXXXXXXXXXXXXXXXXXXXXXX........................",
"......................XXXXX           XXXXXXXXXXXXXXXXXXXXXXXXXXXXXXXXXXXXX.........................",
"......................XXX          XXXXXXX..........................................................",
"......................XXXXXXXXXXXXXXXXX.............................................................",
"........................XXXXXXXXXXXX................................................................",
"....................................................................................................",
"....................................................................................................",
"....................................................................................................",
"....................................................................................................",
"....................................................................................................",
"....................................................................................................",
"....................................................................................................",
"...................................................................................................."
};
