/* XPM */
static char *result[] = {
/* columns rows colors chars-per-pixel */
"100 100 3 1 ",
"  c #D47A7A",
". c #E29C9C",
"X c gray85",
/* pixels */
"....................................................................................................",
"....................................................................................................",
"....................................................................................................",
"....................................................................................................",
"....................................................................................................",
"....................................................................................................",
"....................................................................................................",
"....................................................................................................",
"....................................................................................................",
"....................................................................................................",
"....................................................................................................",
"....................................................................................................",
"....................................................................................................",
"....................................................................................................",
"....................................................................................................",
"....................................................................................................",
"....................................................................................................",
"....................................................................................................",
"....................................................................................................",
"....................................................................................................",
"....................................................................................................",
"....................................................................................................",
"....................................................................................................",
"....................................................................................................",
"....................................................................................................",
"....................................................................................................",
"....................................................................................................",
"....................................................................................................",
"....................................................................................................",
"....................................................................................................",
"....................................................................................................",
"....................................................................................................",
"....................................................................................................",
"....................................................................................................",
"....................................................................................................",
".............................................XXXXXXX................................................",
"..........................................XXXXXXXXXXXXX.............................................",
".........................................XXXXXXXXXXXXXXX............................................",
"........................................XXXXXXXXXXXXXXXXX...........................................",
".......................................XXXXXXXXXXXXXXXXXXX..........................................",
"......................................XXXXXXXXXXXXXXXXXXXXX.........................................",
".....................................XXXXXXXXXXXXXXXXXXXXXXX........................................",
"....................................XXXXXXXXXXXXXXXXXXXXXXXXX.......................................",
"....................................XXXXXXXXXXXXXXXXXXXXXXXXX.......................................",
"....................................XXXXXXXXXXXXXXXXXXXXXXXXX.......................................",
"...................................XXXXXXXXXXXXXXXXXXXXXXXXXXX......................................",
"...................................XXXXXXXXXXXX     XXXXXXXXXX......................................",
"...................................XXXXXXXXXXX       XXXXXXXXX......................................",
"...................................XXXXXXXXXX         XXXXXXXX......................................",
"...................................XXXXXXXXXX         XXXXXXXX......................................",
"...................................XXXXXXXXXX         XXXXXXXX......................................",
"...................................XXXXXXXXXX         XXXXXXXX......................................",
"...................................XXXXXXXXXXX       XXXXXXXXX......................................",
"....................................XXXXXXXXXXX     XXXXXXXXX.......................................",
"....................................XXXXXXXXXXXXXXXXXXXXXXXXX.......................................",
"....................................XXXXXXXXXXXXXXXXXXXXXXXXX.......................................",
".....................................XXXXXXXXXXXXXXXXXXXXXXX........................................",
"......................................XXXXXXXXXXXXXXXXXXXXX.........................................",
".......................................XXXXXXXXXXXXXXXXXXX..........................................",
"........................................XXXXXXXXXXXXXXXXX...........................................",
".........................................XXXXXXXXXXXXXXX............................................",
"..........................................XXXXXXXXXXXXX.............................................",
".............................................XXXXXXX................................................",
"....................................................................................................",
"....................................................................................................",
"....................................................................................................",
"....................................................................................................",
"....................................................................................................",
"....................................................................................................",
"....................................................................................................",
"....................................................................................................",
"....................................................................................................",
"....................................................................................................",
"....................................................................................................",
"....................................................................................................",
"....................................................................................................",
"....................................................................................................",
"....................................................................................................",
"....................................................................................................",
"....................................................................................................",
"....................................................................................................",
"....................................................................................................",
"....................................................................................................",
"....................................................................................................",
"....................................................................................................",
"....................................................................................................",
"....................................................................................................",
"....................................................................................................",
"....................................................................................................",
"....................................................................................................",
"....................................................................................................",
"....................................................................................................",
"....................................................................................................",
"....................................................................................................",
"....................................................................................................",
"....................................................................................................",
"....................................................................................................",
"....................................................................................................",
"....................................................................................................",
"...................................................................................................."
};
