/* XPM */
static char *result[] = {
/* columns rows colors chars-per-pixel */
"100 100 3 1 ",
"  c black",
". c #E29C9C",
"X c white",
/* pixels */
"....................................................................................................",
"....................................................................................................",
"....................................................................................................",
"....................................................................................................",
"....................................................................................................",
"....................................................................................................",
"....................................................................................................",
"....................................................................................................",
"....................................................................................................",
"....................................................................................................",
"....................................................................................................",
"..................           .......................................................................",
".................            ....................................  .................................",
".................   XXXXXXX  ....................................     ..............................",
".................  XXXXXXXX  ..................  ...............        ............................",
"................   XXXXXXXX  .................     .............  XXX     ..........................",
"................  XXXXXXXXX  ................       ............  XXXXX   ..........................",
"................  XXXXXXXX   ................   XX      .......   XXXXXX   .........................",
"................  XXXXXXXX  ................   XXXX     ......   XXXXXXXX  .........................",
"................  XXXXXXXX  ................   XXXXXXX   .....  XXXXXXXXX  .........................",
"................  XXXXXXXX  ................  XXXXXXXXX  .....  XXXXXXXXX  .........................",
"................  XXXXXXX   ................  XXXXXXXXX  .....  XXXXXXXX   .........................",
"................  XXXXXXX  .................  XXXXXXXXX  .....   XXXXXXX  ..........................",
"...............   XXXXXXX  ................   XXXXXXXXX  ......  XXXXXXX  ..........................",
"...............  XXXXXXXX  ................  XXXXXXXXXX  ......  XXXXXXX  ..........................",
"...............  XXXXXXXX  ................  XXXXXXXXXX  ......  XXXXXX   ..........................",
"...............  XXXXXXXX  ................  XXXXXXXXXX  ......  XXXXXX  ...........................",
"...............  XXXXXXXX  ................   XXXXXXXXX          XXXXXX  ...........................",
"...............  XXXXXXXX  ................   XXXXXXXXX          XXXXXX  ...........................",
"...............  XXXXXXXX  ..............     XXXXXXXXXXXXXXXXXXXXXXXXX  ...........................",
"...............  XXXXXXXX  ....              XXXXXXXXXXXXXXXXXXXXXXXXXX  ...........................",
"...............  XXXXXXXX                 XXXXXXXXXXXXXXXXXXXXXXXXXXXXX  ...........................",
"...............  XXXXXXXX       XXXXXXXXXXXXXXXXXXXXXXXXXXXXXXXXXXXXXXX  ...........................",
"...............  XXXXXXXXXXXXXXXXXXXXXXXXXXXXXXXXXXXXXXXXXXXXXXXXXXXXXX  ...........................",
"...............  XXXXXXXXXXXXXXXXXXXXXXXXXXXXXXXXXXXXXXXXXXXXXXXXXXXXXX  ...........................",
"..............   XXXXXXXXXXXXXXXXXXXXXXXXXXXXXXXXXXXXXXXXXXXXXXXXXXXXXX  ...........................",
"..............  XXXXXXXXXXXXXXXXXXXXXXXXXXXXXXXXXXXXXXXXXXXXXXXXXXXXXXX  ...........................",
"..............  XXXXXXXXXXXXXXXXXXXXXXXXXXXXXXXXXXXXXXXXXXXXXXXXXXXXXXX  ...........................",
"..............  XXXXXXXXXXXXXXXXXXXXXXXXXXXXXXXXXXXXXXXXXXXXXXXXXXXXXXX  ...........................",
"..............  XXXXXXXXXXXXXXXXXXXXXXXXXXXXXXXXXXXXXXXXXXXXXXXXXXXXXXX  ...........................",
"..............  XXXXXXXXXXXXXXXXXXXXXXXXXXXXXXXXXXXXXXXXXXXXXXXXXXXXXX   ...........................",
"..............  XXXXXXXXXXXXXXXXXXXXXXXXXXXXXXXXXXXXXXXXXXXXXXXXXXXXXX   ...........................",
"..............  XXXXXXXXXXXXXXXXXXXXXXXXXXXXXXXXXXXXXXXXXXXXXXXXXXXXXX  ............................",
"..............  XXXXXXXXXXXXXXXXXXXXXXXXXXXXXXXXXXXXXXXXXXXXXXXXXXXXX   ............................",
"..............  XXXXXXXXXXXXXXXXXXXXXXXXXXXXXXXXXXXXXXXXXXXXXXXXXXXXX  .............................",
"..............   XXXXXXXXXXXXXXXXXXXXXXXXXXXXXXXXXXXXXXXXXXXXXXXXXXXX  .............................",
"...............  XXXXXXXXXXXXXXXXXXXXXXXXXXXXXXXXXXXXXXXXXXXXXXXXXXXX  .............................",
"...............   XXXXXXXXXXXXXXXXXXXXXXXXXXXXXXXXXXXXXXXXXXXXXXXXXX   .............................",
"................  XXXXXXXXXXXXXXXXXXXXXXXXXXXXXXXXXXXXXXXXXXXXXXXX     .............................",
"................  XXXXXXXXXXXXXXXXXXXXXXXXXXXXXXXXXXXXXXXXXXXXX       ..............................",
"................   XXXXXXXXXXXXXXXXXXXXXXXXXXXXXXXXXXXXXXX         .................................",
".................   XXXXXXXXXXXXXXXXXXXXXXXXXXXXXXXXXXXXX       ....................................",
"..................    XXXXXXXXXXXXXXXXXXXXXXXXXXXXXXXXXXX   ........................................",
"...................     XXXXXXXXXXXXXXXXXXXXXXXXXXXXXXXXX  .........................................",
"....................              XXXXXXXXXXXXXXXXXXXXXXX  .........................................",
".......................           XXXXXXXXXXXXXXXXXXXXXXX  .........................................",
"................................  XXXXXXXXXXXXXXXXXXXXXXX  .........................................",
"................................   XXXXXXXXXXXXXXXXXXXXXX  .........................................",
".................................  XXXXXXXXXXXXXXXXXXXXXX  .........................................",
".................................  XXXXXXXXXXXXXXXXXXXXXX  .........................................",
".................................   XXXXXXXXXXXXXXXXXXXXX  .........................................",
"..................................  XXXXXXXXXXXXXXXXXXXXX  .........................................",
"..................................  XXXXXXXXXXXXXXXXXXXXX  .........................................",
"..................................  XXXXXXXXXXXXXXXXXXXXX  .........................................",
"..................................  XXXXXXXXXXXXXXXXXXXXX  .........................................",
"..................................  XXXXXXXXXXXXXXXXXXXXX  .........................................",
"..................................  XXXXXXXXXXXXXXXXXXXXX  .........................................",
"..................................  XXXXXXXXXXXXXXXXXXXXX   ........................................",
"..................................  XXXXXXXXXXXXXXXXXXXXXX  ........................................",
"..................................  XXXXXXXXXXXXXXXXXXXXXX  ........................................",
"..................................  XXXXXXXXXXXXXXXXXXXXXX  ........................................",
".................................   XXXXXXXXXXXXXXXXXXXXXX  ........................................",
".................................   XXXXXXXXXXXXXXXXXXXXXX  ........................................",
".................................  XXXXXXXXXXXXXXXXXXXXXXX   .......................................",
".................................  XXXXXXXXXXXXXXXXXXXXXXXX  .......................................",
".................................  XXXXXXXXXXXXXXXXXXXXXXXX  .......................................",
"................................   XXXXXXXXXXXXXXXXXXXXXXXX  .......................................",
"................................   XXXXXXXXXXXXXXXXXXXXXXXX   ......................................",
".............................     XXXXXXXXXXXXXXXXXXXXXXXXX    .....................................",
"...........................      XXXXXXXXXXXXXXXXXXXXXXXXXXX         ...............................",
".....................         XXXXXXXXXXXXXXXXXXXXXXXXXXXXXXXX           ...........................",
".................           XXXXXXXXXXXXXXXXXXXXXXXXXXXXXXXXXXXXXXX       ..........................",
"...............       XXXXXXXXXXXXXXXXXXXXXXXXXXXXXXXXXXXXXXXXXXXXXXXXX     ........................",
".............     XXXXXXXXXXXXXXXXXXXXXXXXXXXXXXXXXXXXXXXXXXXXXXXXXXXXXXX   ........................",
"...........     XXXXXXXXXXXXXXXXXXXXXXXXXXXXXXXXXXXXXXXXXXXXXXXXXXXXXXXXXX  ........................",
"..........    XXXXXXXXXXXXXXXXXXXXXXXXXXXXXXXXXXXXXXXXXXXXXXXXXXXXXXXXXXXX  ........................",
".........   XXXXXXXXXXXXXXXXXXXXXXXXXXXXXXXXXXXXXXXXXXXXXXXXXXXXXXXXXXXXXX   .......................",
".........   XXXXXXXXXXXXXXXXXXXXXXXXXXXXXXXXXXXXXXXXXXXXXXXXXXXXXXXXXXXXXXX  .......................",
".........   XXXXXXXXXXXXXXXXXXXXXXXXXXXXXXXXXXXXXXXXXXXXXXXXXXXXXXXXXXXXXXX  .......................",
"..........  XXXXXXXXXXXXXXXXXXXXXXXXXXXXXXXXXXXXXXXXXXXXXXXXXXXXXXXXXXXXXXX  .......................",
"..........   XXXXXXXXXXXXXXXXXXXXXXXXXXXXXXXXXXXXXXXXXXXXXXXXXXXXXXXXXXXXXX  .......................",
"...........  XXXXXXXXXXXXXXXXXXXXXXXXXXXXXXXXXXXXXXXXXXXXXXXXXXXXXXXXXXXXXX  .......................",
"...........   XXXXXXXXXXXXXXXXXXXXXXXXXXXXXXXXXXXXXXXXXXXXXXXXXXXXXXXXXXXXX  .......................",
"............    XXXXXXXXXXXXXXXXXXXXXXXXXXXXXXXXXXXXXXXXXXXXXXXXXXXXXXXXX    .......................",
".............    XXXXXXXXXXXXXXXXXXXXXXXXXXXXXXXXXXXXXXXXXXXXXXXXXXXXX       .......................",
"...............    XXXXXXXXXXXXXXXXXXXXXXXXXXXXXXXXXXXXXXXXXXXXXXXX        .........................",
"................      XXXXXXXXXXXXXXXXXXXXXX                           .............................",
"..................                                                  ................................",
".....................                        .......................................................",
"...................................................................................................."
};
