/* XPM */
static char *ae398560f2f2430ba796cc2247787d0d67mPf318JsGoo0hz[] = {
/* columns rows colors chars-per-pixel */
"100 100 3 1 ",
"  c black",
". c #E29C9C",
"X c white",
/* pixels */
"....................................................................................................",
"....................................................................................................",
"....................................................................................................",
"....................................................................................................",
"....................................................................................................",
"....................................................................................................",
"............................                    ....................................................",
"..........................                           ...............................................",
".......................      XXXXXXXXXXXXXXXXXX          ...........................................",
"......................     XXXXXXXXXXXXXXXXXXXXXXXXX          ......................................",
".....................   XXXXXXXXXXXXXXXXXXXXXXXXXXXXXXXX          ..................................",
"....................    XXXXXXXXXXXXXXXXXXXXXXXXXXXXXXXXXXXXX        ...............................",
"....................   XXXXXXXXXXXXXXXXXXXXXXXXXXXXXXXXXXXXXXXXXX       ............................",
"...................   XXXXXXXXXXXXXXXXXXXXXXXXXXXXXXXXXXXXXXXXXXXXXX     ...........................",
"...................  XXXXXXXXXXXXXXXXXXXXXXXXXXXXXXXXXXXXXXXXXXXXXXXXXX   ..........................",
"..................   XXXXXXXXXXX   XXXXXXXXXXXXXXXXXXXXXXXXXXXXXXXXXXXXX   .........................",
"..................  XXXXXXXXXXX     XX   XXXXXXXXXXXXXXXXXXXXXXXXXXXXXXXX  .........................",
".................   XXXXXXXXXXX     XX    XXXXXXXXXXXXXXXXXXXXXXXXXXXXXXX   ........................",
".................  XXXXXXXXXX    X        XXXXXXXXXXXXXXXXXXXXXXXXXXXXXXXX  ........................",
".................  XXXXXXXXX    XX        XXXXXXXXXXXXXXXXXXXXXXXXXXXXXXXX  ........................",
"................   XXXXXXX    XXXXX    X  XXXXXXXXXXX      XXXXXXXXXXXXXXX   .......................",
"................  XXXXXXXX   XXX   XXXXXXXXXXXXXXXXX         XXXXXXXXXXXXXX  .......................",
"................  XXXXXXXXXXXX       XXXXXXXXXXXXXX           XXXXXXXXXXXXX  .......................",
"................  XXXXXXXXXX          XXXXXXXXXXXXX      XX   XXXXXXXXXXXX   .......................",
"................  XXXXXXXXX        X  XXXXXXXXXXXXXXXXXXXXXX   XXXXXXXXXXX  ........................",
"................  XXXXXXXXX       XX   XXXXXXXXXXXXXXXXXXX       XXXXXXXXX  ........................",
"................  XXXXXXXXXX      XXX  XXXXXXXXXXXXXXXXXX   XX   XXXXXXXX   ........................",
"................  XXXXXXXXXX       XX  XXXXXXXXXXXXXXXX     XXXXXXXXXXXXX   ........................",
"................  XXXXXXXXXX       XX  XXXXXXXXXXXXXXX    XXXXXXXXXXXXXXX  .........................",
"................  XXXXXXXXXX       XX  XXXXXXXXXXXXXX       XXXXXXXXXXXX   .........................",
"................   XXXXXXXXX    XXXXX  XXXXXXXXXXXXXX        XXXXXXXXXX   ..........................",
"................   XXXXXXXXX  XXXXXXX  XXXXXXXXXXXXXX  XXXX  XXXXXXXXX   ...........................",
".................      XXXXX  XXXXXX   XXXXXXXXXXXXX   X     XXXXXXXXX  ............................",
"..................      XXXX  XXXXXX  XXXXXXXXXXXXXX  XX     XXXXXXXX   ............................",
"....................    XXXX   XXXXX  XXXXXXXXXXXXX   X      XXXXXXX   .............................",
"......................  XXXXX   XXXX  XXXXXXXXXXXXX  XX      XXXXXX    .............................",
"......................  XXXXXX   XX   XXXXXXXXXXXXX  XX      XXXXX   ...............................",
".....................   XXXXXXX      XXXXXXXXXXXXXX  XXXX    XXXX    ...............................",
".....................  XXXXXXXXX    XXXXXXXXXXXXXXX  XXXXXX  XXX   .................................",
"....................   XXXXXXXXXXXXXXXXXXXXXXXXXXXX  XXXXXX  XX   ..................................",
"...................   XXXXXXXXXXXXXXXXXXXXXXXXXXXXX  XXXXX   X   ...................................",
"..................   XXXXXXXXXXXXXXXXXXXXXXXXXXXXXX   XXX   XX   ...................................",
".................   XXXXXXXXXXXXXXXXXXXXXXXXXXXXXXX         XX  ....................................",
"...............    XXXXXXXXXXXXXXXXXXXXXXXXXXXXXXXXXX     XXX   ....................................",
"..............    XXXXXXXXXXXXXXXXXXXXXXXXXXXXXXXXXXXXXXXXXXX  .....................................",
"..............  XXXXXXXXXXXXXXXXXXXXXXXXXXXXXXXXXXXXXXXXXXXXX  .....................................",
".....      ...  XXXXXXXXXXXXXXXXXXXXXXXXXXXXXXXXXXXXXXXXXXXXX  .....................................",
".....           XXXXXXXXXXXXXXXXXXXXXXXXXXXXXXXXXXXXXXXXXXXXX   ....................................",
".....  XXX        XXXXXXXXXXXXXXXXXXXXXXXXXXXXXXXXXXXXXXXXXXXX  ....................................",
"....   XXXXXXXX    XXXXXXXXXXXXXXXXXXXXXXXXXXXXXXXXXXXXXXXXXXX   ...................................",
"....  XXXXXXXXXXX   XXXXXXXXXXXXXXXXXXXXXXXXXXXXXXXXXXXXXXXXXX    ..................................",
"....  XXXXXXXXXXXX   XXXXXXXXXXXXXXXXXXXXXXXXXXXXXXXXXXXXXXXXXX    .................................",
"....  XXXXXXXXXXXXX    XXXXXXXXXXXX              XXXXXXXXXXXXXXX          ..........................",
"....   XXXXXXXXXXXXX    XXXXXXXX                        XXXXXXXXXX            ......................",
".....  XXXXXXXXXXXXXXX   XXXXXX     XXXXXXXXXXXX          XXXXXXXXXXXXXX        ....................",
".....  XXXXXXXXXXXXXXXX  XXXXX   XXXXXXXXXXXXXXXXXXXXXX       XXXXXXXXXXXXXXX   ....................",
".....   XXXXXXXXXXXXXXXXX XX    XXXXXXXXXXXXXXXXXXXXXXXXX       XXXXXXXXXXXXXX  ....................",
".....   XXXXXXXXXXXXXXXXX X    XXXXXXXXXXXXXXXXXXXXXXXXXXXXXX     XXXXXXXXXXXX  ....................",
"......  XXXXXXXXXXXXXXXXXXX  XXXXXXXXXXXXXXXXXXXXXXXXXXXXXXXXX     XXXXXXXXXXX  ....................",
"......   XXXXXXXXXXXXXXXXXXXXXXXXXXXXXXXXXXXXXXXXXXXXXXXXXXXXXXX   XXXXXXXXXXX  ....................",
".......    XXXXXXXXXXXXXXXXXXXXXXXXXXXXXXXXXXXXXXXXXXXXXXXXXXXXXX  XXXXXXXXXXX  ....................",
"........      XXXX X   XXXXXXXXXXXXXXXXXXXXXXXXXXXXXXXXXXXXXXXXXX  XXXXXXXXXXX  ....................",
"..........    XXX          XXXXXXXXXXXXXXXXXXXXXXXXXXXXXXXXXXXXXX  XXXXXXXXXXX  ....................",
".............         X    XXXXXXXXXXXXXXXXXXXXXXXXXXXXXXXXXXXXXX   XXXXXXXXXX  ....................",
".................  XX     XXXXXXXXXXXXXXXXXXXXXXXXXXXXXXXXXXXXXXX     XXXXXXXX  ....................",
".................         XXXXXXXXXXXXXXXXXXXXXXXXXXXXXXXXXXXXXX XXX   XXXXXX   ....................",
".................   XXX  XXXXXXXXXXXXXXXXXXXXXXXXXXXXXXXXXXXXXXX XXXX   XXXXX   ....................",
"..................  XXX  XXXXXXXXXXXXXXXXXXXXXXXXXXXXXXXXXXXXX   XXXX    XXXX  .....................",
"..................  XXX  XXXXXXXXXXXXXXXXXXXXXXXXXXXXXXXXXXXX     XXXX   XXXX  .....................",
"..................  XXXXX  XXXXXXXXXXXXXXXXXXXXXXXXXXXXXXXXXXXX      XX  XXX   .....................",
"..................  XXX    XXXXXXXXXXXXXXXXXXXXXXXXXXXXXXX XXXXX         XX   ......................",
"..................  XXXX         XX   XXXXXXXXXXXXXX       XXXXX XX           ......................",
"..................  XXXX                XXX                XXXX             ........................",
"..................  XX   .......         XX          XX     XXX           ..........................",
"..................  XX  ..............    XXXXXXXXXXXXX  .  XXXX  ..................................",
"..................      ...............   XXXXXXXXXXXX   .   XXX   .................................",
"..................     .................  XXXXXXXXXXXX   ..  XXX   .................................",
"...................   ..................  XXXXXXXXXXXX  ...  XXXX  .................................",
"........................................  XXXXXXXXXXXX  ...   XXX  .................................",
"........................................  XXXXXXXXXXXX  ....   XX  .................................",
"........................................   XXXXXXXXXXX  ....       .................................",
"........................................   XXXXXXXXXXX  .....      .................................",
"........................................   XXXXXXXXXXX   .......  ..................................",
"........................................   XXXXXXXXXXXX  ...........................................",
"........................................  XXXXXXXXXXXXX     ........................................",
".......................................   XXXXXXXXXXXXXX      ......................................",
".....................................    XXXXXXXXXXXXXXXXXX   ......................................",
"....................................    XXXXXXXXXXXXXXXXXXXX                ........................",
"................................      XXXXXXXXXXXXXXXXXXXXXXX               ........................",
"..............                       XXXXXXXXXXXXXXXXXXXXXXXXXXXXXXXXXXXXX  ........................",
".............                    XXXXXXXXXXXXXXXXXXXXXXXXXXXXXXXXXXXXXXXXX  ........................",
"............   XXXXXXXXXXXXXXXXXXXXXXXXXXXXXXXXXXXXXXXXXXXXXXXXXXXXXXXXXXX  ........................",
"............  XXXXXXXXXXXXXXXXXXXXXXXXXXXXXXXXXXXXXXXXXXXXXXXXXXXXXXXXXXX   ........................",
"............  XXXXXXXXXXXXXXXXXXXXXXXXXXXXXXXXXXXXXXXXXXXXXXXXXXXXXXXXXX   .........................",
"............   XXXXXXXXXXXXXXXXXXXXXXXXXXXXXXXXXXXXXXXXXXXXXXXXXXXXXXX     .........................",
"............    XXXXXXXXXXXXXXXXXXXXXXXXXXXXXXXXXXXXXXXXXXXXXXXXXXXXX    ...........................",
".............    XXXXXXXXXXXXXXXXXXXXX               XXXXXXXXXXX       .............................",
"...............                                                       ..............................",
"...............                        .............             ...................................",
"...................................................................................................."
};
