/* XPM */
static char *b93338214b924d4983cb82bdc8c8862dCbuvuVmpmGimf9YM[] = {
/* columns rows colors chars-per-pixel */
"100 100 3 1 ",
"  c black",
". c #E29C9C",
"X c white",
/* pixels */
"....................................................................................................",
"....................................................................................................",
"....................................................................................................",
"....................................................................................................",
"....................................................................................................",
"....................................................................................................",
"....................................................................................................",
"....................................................................................................",
"....................................................................................................",
"....................................................................................................",
"....................................................................................................",
"....................................................................................................",
"................................         ...........................................................",
"............................               .........................................................",
"...........................       XXXXXX      ......................................................",
".........................    XXXXXXXXXXXXX    ..............         ...............................",
"......................      XXXXXXXXXXXXXXXX   .........               .............................",
".....................     XXXXXXXXXXXXXXXXXXX   .            XXXXXXX     ...........................",
"....................   XXXXXXXXXXXXXXXXXXXXXX            XXXXXXXXXXXXX    ..........................",
"..................     XXXXXXXXXXXXXXXXXXXXXXX    XXXXXXXXXXXXXXXXXXXXX     ........................",
".................     XXXXXXXXXXXXXXXXXXXXXXXXXXXXXXXXXXXXXXXXXXXXXXXXXX    ........................",
"................      XXXXXXXXXXXXXXXXXXXXXXXXXXXXXXXXXXXXXXXXXXXXXXXXXXXX  ........................",
"................    XXXXXXXXXXXXXXXXXXXXXXXXXXXXXXXXXXXXXXXXXXXXXXXXXXXXXX  ........................",
"...............    XXXXXXXXXXXXXXXXXXXXXXXXXXXXXXXXXXXXXXXXXXXXXXXXXXXXXXX  ........................",
"...............   XXXXXXXXXXXXXXXXXXXXXXXXXXXXXXXXXXXXXXXXXXXXXXXXXXXXXXXX   .......................",
"..............    XXXXXXXX   XXXXXXXXXXXXXXXXXXXXXXXXX   XXXXXXXXXXXXXXXXXX  .......................",
"..............   XXXXXXXXX                 XXXXXXXXXX                  XXXX  .......................",
"..............   XXXXXXXXX                  XXXXXXX                    XXXX  .......................",
"..............  XXXXXXXXXX            XXXX  XXXXXX            XXXXXX  XXXXX  .......................",
"..............  XXXXXXXXXX             XXX  XXXXXX            XXXXXX  XXXXX  .......................",
"..............  XXXXXXXXXX             XXX  XXXXXX             XXXX   XXXXX  .......................",
"..............  XXXXXXXXXXX            XXX  XXXXX              XXX    XXXXX  .......................",
"..............  XXXXXXXXXXX           XXXX  XXXXX  X           XXX   XXXXXX   ......................",
"..............  XXXXXXXXXXX        XXXXXXX  XXXXX  X          XXXX  XXXXXXXX  ......................",
"..............  XXXXXXXXXXX         XXXXX   XXXXX  X           XX   XXXXXXXX  ......................",
".............   XXXXXXXXXX           XXXX   XXXXX  XX          XX   XXXXXXXX  ......................",
"............   XXXXXXXXXX             XX   XXXXXX  XX          XX   XXXXXXXX   .....................",
"............  XXXXXXXXXXX             XX   XXXXXX  XX           X   XXXXXXXXX   ....................",
"............  XXXX                    X   XXXXXXX               XX   XXXXXXXXX   ...................",
"....   ...    XX                         XXXXXXXX               XX   XXXXXXXXX        ..............",
"....         XXX   XXXXXX   XXXXXXXXX    XXXXXXXXXX            XX       XXXXXXXX         ...........",
"....        XXX   XXXXXXXX   XXXXXXX    XXXXXXXXXXXX          XXXX        XXXXXXXXXXX    ...........",
"........          XXXXXXXXX            XXXXXXXXXXXXX    XXXXXXXXX   XX      XXXXXXXXX   ............",
"..........      XXXX  XXXXXX          XXXXXXXXXXXXXXX     XXXXXX    XXXX     XXXXXX    .............",
"..............  XXXX  XXXXXXXXXXXXXXXXXXXXXXXXXXXXXXXX             XXXXXXX   XXXX     ..............",
"..............  XXXX   XXXXXXXXXXXXXXXXXXXXXXXXXXXXXXXXXX        XXXXXXXXXX          ...............",
".............   XXX     XXXXXXXXXXXXXXXXXXXXXXXXXXXXXXXXXXXXXXXXXXXXXXXXXXXX      ..................",
".............  XXXX  X    XXXXXXXXXXXXXXXXXXXXXXXXXXXXXXXXXXXXXXXXXX   XXXXX   .....................",
".............  XXXX   X        XXXXXXXXXXXXXXXXXXXXXXXXXXXXXXXXX       XXXXX  ......................",
".............  XXXX   XXX             XXXXXXXXXXXXXXXXX               XXXXXX  ......................",
".............  XXXXX   XXX  XX                                   XX  XXXXXX   ......................",
".............  XXXXX   XXX  XXXXXXXX                      XXXXXXXX   XXXXXX   ......................",
".............  XXXXXX   XX  XXXXXXXX  XXXXXXXX  XXXXXXXX  XXXXXXXX   XXXXXX  .......................",
".............  XXXXXXX  XX  XXXXXXXX  XXXXXXXX  XXXXXXXX  XXXXXXXX  XXXXXX   .......................",
".............  XXXXXXX   X  XXXXXXXX  XXXXXXXX  XXXXXXXX  XXXXXXX   XXXXXX  ........................",
".............  XXXXXXX   X  XXXXXXXX  XXXXXXXX  XXXXXXXX  XXXXXX   XXXXXX   ........................",
".............  XXXXXXXX  X  XXXXXXXX  XXXXXXXX  XXXXXXXX  XXXXXX  XXXXXXX  .........................",
".............  XXXXXXXX  X  XXXXXXXX  XXXXXXXX  XXXXXXXX  XXXXX   XXXXXX   .........................",
".............  XXXXXXXX      XXXXXX   XXXXXXXX  XXXXXXXX  XXXX   XXXXXXX  ..........................",
".............  XXXXXXXXX     XXXXXX  XXXXXXXX   XXXXXXXX  XXX   XXXXXXX   ..........................",
".............   XXXXXXXX     XXXXXX  XXXXXXXX  XXXXXXXXX  XX   XXXXXXX   ...........................",
"..............  XXXXXXXX    XXXXXX   XXXXXXXX  XXXXXXXXX  X    XXXXXXX  ............................",
"..............   XXXXXXXX     XXXX   XXXXXXXX  XXXXXXXXX     XXXXXXXXX  ............................",
"...............   XXXXXXXX      XX   XXXXXXXX  XXXXXXXX     XXXXXXXXX   ............................",
"................   XXXXXXXXXX        XXXXXXXX  XXXXXXX    XXXXXXXXXX   .............................",
".................   XXXXXXXXXXX         XXXXX  XXX      XXXXXXXXXXX   ..............................",
"..................  XXXXXXXXXXXXXX                     XXXXXXXXXXXX  ...............................",
"..................    XXXXXXXXXXXXXXXXX            XXXXXXXXXXXXXXX   ...............................",
"...................     XXXXXXXXXXXXXXXXXXXXXXXXXXXXXXXXXXXXXXXXX   ................................",
".....................    XXXXXXXXXXXXXXXXXXXXXXXXXXXXXXXXXXXXXXX   .................................",
".......................    XXXXXXXXXXXXXXXXXXXXXXXXXXXXXXXXXXXX   ..................................",
"........................       XXXXXXXXXXXXXXXXXXXXXXXXXXXXXXX    ..................................",
"........................         XXXXXXXXXXXXXXXXXXXXXXXXXX      ...................................",
"..............................   XXXXXXXXXXXXXXXXXXXXXXXXX     .....................................",
"...............................   XXXXXXXXXXXXXXXXXXXXXXXX   .......................................",
"................................  XXXXXXXXXXXXXXXXXXXXXXXX   .......................................",
"................................  XXXXXXXXXXXXXXXXXXXXXXX   ........................................",
"................................  XXXXXXXXXXXXXXXXXXXXXXX   ........................................",
"...............................   XXXXXXXXXXXXXXXXXXXXXXX  .........................................",
"...............................  XXXXXXXXXXXXXXXXXXXXXXXX  .........................................",
"..............................   XXXXXXXXXXXXXXXXXXXXXXXX  .........................................",
"..............................  XXXXXXXXXXXXXXXXXXXXXXXXX   ........................................",
"............................    XXXXXXXXXXXXXXXXXXXXXXXXX     ......................................",
"..........................     XXXXXXXXXXXXXXXXXXXXXXXXXXX       ...................................",
".........................    XXXXXXXXXXXXXXXXXXXXXXXXXXXXXXX     ...................................",
"........................   XXXXXXXXXXXXXXXXXXXXXXXXXXXXXXXXXXXX  ...................................",
"........................  XXXXXXXXXXXXXXXXXXXXXXXXXXXXXXXXXXXXX  ...................................",
"........................  XXXXXXXXXXXXXXXXXXXXXXXXXXXXXXXXXXXXX  ...................................",
"........................  XXXXXXXXXXXXXXXXXXXXXXXXXXXXXXXXXXXXX  ...................................",
"........................  XXXXXXXXXXXXXXXXXXXXXXXXXXXXXXXXXXXX   ...................................",
"........................   XXXXXXXXXXXXXXXXXXXXXXXXXXXXXXXXX     ...................................",
"........................    XXXXXXXXXXXXXXXXXXXXXXXXXXXXXXX     ....................................",
".........................    XXXXXXXXXXXXXXXXXXXXXXXXXXXXX   .......................................",
"...........................       XXXXXXXXXXXXXXXXX          .......................................",
"...........................             XXXXXX             .........................................",
".................................                   ................................................",
".......................................        .....................................................",
"....................................................................................................",
"....................................................................................................",
"...................................................................................................."
};
