/* XPM */
static char *e22b9a3c1d9f499cb52d9b49b689010dWvN0hivIAzzXCOv8[] = {
/* columns rows colors chars-per-pixel */
"100 100 3 1 ",
"  c black",
". c #E29C9C",
"X c white",
/* pixels */
"....................................................................................................",
"....................................................................................................",
"....................................................................................................",
"....................................................................................................",
"..................        ..........................................................................",
"................                                       .............................................",
"..............      XXXXX                                 ..........................................",
"..............    XXXXXXXX  XXXXXXXXXXXXXXXXXXXXXXXXXX     .........................................",
"..............  XXXXXXXXXXXXXXXXXXXXXXXXXXXXXXXXXXXXXXXXX  .........................................",
"..............  XXXXXXXXXXXXXXXXXXXXXXXXXXXXXXXXXXXXXXXXX  .......   ...............................",
"..............  XXXXXXXXXXXXXXXXXXXXXXXXXXXXXXXXXXXXXXXXX  ....      ...............................",
"..............      XXXXXXXXXXXXXXXXXXXXXXXXXXXXXXXXXXXXX           ................................",
"..............       XXXXXXXXXXXXXXXXXXXXXXXXXXXXXXXXXXXXX        ..................................",
"..............       XXXXXXXXXXXX         XXXXXXXXXXXXXXXX  X     ..................................",
".............   XXX  XXXXXXXXXX           XXXXXXXXXXXXXXXXXXX   ....................................",
".............   XXXXXXXXXXXX      XXXXXXXX   XXXXXXXXXXXXXXXX  .....................................",
".............   XXXXXXXXXXX      XXXXXXXXX   XXXXXXXXXXXXXXXX  .....................................",
".............    XXXXXXX      XXXXXXXXXXXX  X   XXXXXXXXXXXXX   ....................................",
"..............              XXXXXXXXXXXXXX      XXXXXXXXXXXXXX  ....................................",
"...............          XXXXXXXXXXXXXXXX      XXXXXXXXXXXXXXX   ...................................",
"....................   XXXXXXXXXXXXXXXXXX     XXXXXXXXXXXXXXXXX  ...................................",
"....................  XXXXXXXXXXXXXXXXXXX    XX  XXXXXXXXXXXXXX  ...................................",
"....................  XXXXXXXXXXXXXXXXXXX    XX  XXXXXXXXXXXXXX  ...................................",
"....................  XXXXXXXXXXXXXXXXXXX   XXX  XXXXXXXXXXXXXX  ...................................",
"....................  XXXXXXXXXXXXXXXXXXX  XXXX  XXXXXXXXXXXXXX   ..................................",
"....................  XXXXXXXXXXXXXXXXXXX  XXXX   XXXXXXXXXXXXX   ..................................",
"....................  XXXX      XXXXXXXXX  XXXXX  XXXXXXXXXXXXXX   .................................",
"...................   X         XXXXXXXXX  XXXXX   XXXXXXXXXXXXX   .................................",
"..................   XX       XXXXXXXXXXX   XXXXX  XXXXXXXXXXXXXX  .................................",
"..................  XXXXX    XXXXXXXXXXXX      XX  XXXXXXXXXXXXXX  .................................",
"..................  XXXX     XXXXXXXXXXXXX     XX  XX   XXXXXXXXX  .................................",
".................   XXXX   XXXXXXXXXXXXXXXXXX            XXXXXXXX  .................................",
".................  XXXXX   XXXXXXXXXXXXXXXXXX         X    XXXXXX  .................................",
"................   XXXXXXXXXXXXXXXXXXXXXXXXXXXXXXXXXXXXX   XXXXXX  .................................",
"...............   XXXXXXXXXXXXXXXXXXXXXXXXXXXXXXXXXXXXXXX  XXXXXX  .................................",
"..............   XXXXXXXXXXXXXXXXXXXXXXXXXXXXXXXX    XXXX  XXXXX   .................................",
"............    XXXXXXXXXXXXXXXXXXXXXXXXXXXXXXXXX    XXXX  XXXXX  ..................................",
"...........    XXXXXXXXXXXXXXXXXXXXXXXXXXXXXXXXXX  XXXXX   XXXX   ..................................",
"...........      XXXXXXXXXXXXXXXXXXXXXXXXXXXXXXX   XXXXX  XXXX    ..................................",
".............      XXXXXXXXXXXXXXXXXXXXXXXXXXXXX  XXXXXX  XXXX  ....................................",
"................      XXXXXXXXXXXXXXXXXXXXXXXXXX    XXXX  XX    ....................................",
"..................    XXXXXXXXXXXXXXXXXXXXXXXXXX    XXX   X    .....................................",
"....................  XXXXXXXXXXXXXXXXXXXXXXXXXX    XXX       ......................................",
"....................  XXXXXXXXXXXXXXXXXXXXXXXXXX  XXXX       .......................................",
"....................  XXXXXXXXXXXXXXXXXXXXXXXXXXXXXXX      .........................................",
".....................  XXXXXXXXXXXXXXXXXXXXXXXXXXXXX       .........................................",
".....................  XXXXXXXXXXXXXXXXXXXXXXXXX         ...........................................",
"...................    XXXXXXXXXXXXXXXXXXXXXXXX       X  ...........................................",
".................     XXXXXXXXXXXXXXXXXXXXXXXXX          ...........................................",
".................    XXXXXXXXXXXXXXXXXXXXXXXXXX     .   ............................................",
".................  XXXXXXXXXXXXXXXXXXXXXXXXXXXX     ................................................",
".................   XXXXXXXXXXXXXXXXXXXXXXXXXXX  X  ................................................",
".................    XXXXXXXXXXXXXXXXXXXXXXXXXX  X  ................................................",
"..................     XXXXXXXXXXXXXXXXXXXXXXXX  X  ................................................",
"...................    XXXXXXXXXXXXXXXXXXXXXXXX  X  ................................................",
"...................   XXXXXXXXXXXXXXXXXXXXXXXXX     ................................................",
"...................   XXXXXXXXXXXXXXXXXXXX          ................................................",
"....................     XXXXXXXXXXXXXX             ................................................",
"....................     XXXXXXXXXX        XXXXXXX  ................................................",
"......................  XXXXXXXX        XXXXXXXXXX  ................................................",
"......................  XXXXXXX      XXXXXXXXXXXXX  ................................................",
"......................  XXXXX    .    XXXXXXXXXXXX  ................................................",
"......................  XXX     ....  XXXXXXXXXXXX  ................................................",
"......................        ......   XXXXXXXXXXX  ................................................",
"......................      .........  XXXXXXXXXXX  ................................................",
"......................  .............  XXXXXXXXXXX  ................................................",
".....................................  XXXXXXXXXXX  ................................................",
".....................................  XXXXXXXXXXX  ................................................",
".....................................  XXXXXXXXXXX  ................................................",
".....................................  XXXXXXXXXXX  ................................................",
".....................................  XXXXXXXXXXX  ................................................",
".....................................  XXXXXXXXXXX   ...............................................",
".....................................  XXXXXXXXXXXX  ...............................................",
".....................................  XXXXXXXXXXXX  ...............................................",
"....................................   XXXXXXXXXXXX    .............................................",
"...................................   XXXXXXXXXXXXXX    ............................................",
"................................      XXXXXXXXXXXXXXXX    ..........................................",
"..............................      XXXXXXXXXXXXXXXXXXX          ...................................",
"...........................      XXXXXXXXXXXXXXXXXXXXXXXX             ..............................",
"........................       XXXXXXXXXXXXXXXXXXXXXXXXXXXXXXXXX       .............................",
"....................        XXXXXXXXXXXXXXXXXXXXXXXXXXXXXXXXXXXXXXXXX    ...........................",
".................        XXXXXXXXXXXXXXXXXXXXXXXXXXXXXXXXXXXXXXXXXXXXX    ..........................",
"...............      XXXXXXXXXXXXXXXXXXXXXXXXXXXXXXXXXXXXXXXXXXXXXXXXXXX  ..........................",
"............      XXXXXXXXXXXXXXXXXXXXXXXXXXXXXXXXXXXXXXXXXXXXXXXXXXXXXX   .........................",
"......          XXXXXXXXXXXXXXXXXXXXXXXXXXXXXXXXXXXXXXXXXXXXXXXXXXXXXXXX   .........................",
"...          XXXXXXXXXXXXXXXXXXXXXXXXXXXXXXXXXXXXXXXXXXXXXXXXXXXXXXXXXXXX  .........................",
"..     XXXXXXXXXXXXXXXXXXXXXXXXXXXXXXXXXXXXXXXXXXXXXXXXXXXXXXXXXXXXXXXXXX  .........................",
".   XXXX XXXXXXXXXXXXXXXXXXXXXXXXXXXXXXXXXXXXXXXXXXXXXXXXXXXXXXXXXXX       .........................",
".  X   XXXXXXXXXXXXXXXXXXXXXXXXXXXXXXXXXXXXXXXXXXXXXXXXXXXXXXXXXXX        ..........................",
".    X XXX  XXXXXXXXXXXXXXXXXXXXXXXXXXXXXXXXXXXXXXXXXXXXX            ...............................",
"..    XX    XXXXXXXXXXXXXXXX                                       .................................",
"...         XXXXXXXXX                                     ..........................................",
"....      XXXXX              .......................................................................",
"......                ..............................................................................",
".........       ....................................................................................",
"....................................................................................................",
"....................................................................................................",
"....................................................................................................",
"....................................................................................................",
"...................................................................................................."
};
